<svg width="4" height="12" fill="none" xmlns="http://www.w3.org/2000/svg"><path d="M3.704 2.932c-.106 1-.21 1.999-.317 2.998-.041.386-.077.774-.136 1.158A1.235 1.235 0 0 1 1.969 8.13C1.357 8.106.849 7.604.787 6.98.72 6.315.63 5.652.565 4.987.491 4.226.405 3.464.377 2.7.34 1.738 1.125.977 2.077.995c.862.017 1.591.75 1.612 1.62.002.105 0 .21 0 .315l.015.002ZM3.275 9.813c0 .693-.561 1.259-1.246 1.258a1.256 1.256 0 0 1-1.244-1.26c0-.692.561-1.259 1.246-1.258.685 0 1.244.567 1.244 1.26Z" fill="#00315F"/></svg>