<svg width="232" height="71" fill="none" xmlns="http://www.w3.org/2000/svg"><path d="M14.29 12.707H4.044C1.804 12.707 0 14.492 0 16.712V66.2c0 2.22 1.803 4.006 4.044 4.006H14.29c2.24 0 4.044-1.787 4.044-4.006V16.713c0-2.22-1.803-4.007-4.044-4.007ZM188.283 30.926h-10.246c-2.24 0-4.044 1.786-4.044 4.006v31.24c0 2.22 1.804 4.007 4.044 4.007h10.246c2.241 0 4.044-1.787 4.044-4.006v-31.24c0-2.194-1.831-4.007-4.044-4.007ZM103.801 12.707H93.555c-2.24 0-4.044 1.786-4.044 4.006V66.2c0 2.22 1.803 4.006 4.044 4.006H103.8c2.24 0 4.044-1.787 4.044-4.006V16.713c0-2.22-1.804-4.007-4.044-4.007ZM125.195 6.696h-10.247c-2.24 0-4.043 1.787-4.043 4.007v55.334c0 2.3 1.885 4.168 4.207 4.168h9.919c2.322 0 4.207-1.867 4.207-4.168V10.703c-.027-2.193-1.83-4.007-4.043-4.007ZM146.561.687h-10.246c-2.24 0-4.044 1.786-4.044 4.006v61.181c0 2.383 1.94 4.305 4.345 4.305h9.618c2.404 0 4.344-1.922 4.344-4.305V4.694c.027-2.194-1.776-4.007-4.017-4.007ZM159.813 43.595h8.224c2.213 0 3.989-1.76 3.989-3.952v-4.765c0-2.193-1.776-3.952-3.989-3.952h-3.525c-4.836 0-8.743 3.87-8.743 8.662a4.051 4.051 0 0 0 4.044 4.007ZM166.534 70.178h1.503c2.213 0 3.989-1.786 3.989-3.952V48.738c0-2.193-1.803-3.953-3.989-3.953h-1.503c-7.077 0-12.814 5.685-12.814 12.697 0 6.984 5.737 12.696 12.814 12.696ZM62.132 30.926h-10.3c-2.214 0-4.017 1.786-4.017 3.952v16.486c0 9.53 7.213 18.815 16.285 18.815 1.093 0 2.049-.84 2.049-1.976V34.905c0-2.193-1.803-3.98-4.017-3.98ZM72.187 30.926h10.301c2.213 0 4.016 1.786 4.016 3.952v16.486c0 9.53-7.213 18.815-16.284 18.815-1.093 0-2.05-.84-2.05-1.976V34.905c0-2.193 1.804-3.98 4.017-3.98ZM36.913 39.21c3.28-2.789 5.328-6.85 5.328-11.37 0-8.366-7.022-15.16-15.683-15.16h-2.159c-2.213 0-4.07 1.759-4.07 4.006v49.216c0 2.572 1.803 4.277 4.07 4.277h2.897c9.645 0 17.486-7.553 17.486-16.893-.027-5.874-3.142-11.045-7.869-14.077ZM213.693 16.631c-7.896 0-14.317 6.362-14.317 14.186 0 7.823 6.421 14.185 14.317 14.185 7.897 0 14.318-6.362 14.318-14.186 0-7.823-6.421-14.185-14.318-14.185Zm-.819 24.662c0 .623-.519 1.11-1.148 1.11h-1.393c-.629 0-1.12-.487-1.12-1.11v-1.868c0-.162-.11-.27-.274-.298a3.273 3.273 0 0 1-2.951-3.248v-.866c0-.542.438-1.002 1.011-1.002h4.345c.847 0 1.53.677 1.53 1.516v5.766Zm8.224-5.414c0 1.705-1.311 3.086-2.978 3.248-.137.027-.273.136-.273.271v1.868c0 .623-.52 1.11-1.121 1.11h-1.393c-.629 0-1.12-.487-1.12-1.11V34.85c0-.514-.274-1.002-.738-1.272l-5.629-3.303a3.129 3.129 0 0 1-1.53-2.68v-1.868c0-1.706 1.312-3.086 2.978-3.248.137-.028.274-.136.274-.271v-1.895c0-.623.519-1.11 1.12-1.11h1.393c.629 0 1.121.487 1.121 1.11v6.416c0 .514.3 1.001.737 1.272l5.629 3.303a3.129 3.129 0 0 1 1.53 2.68v1.895Zm.273-9.286c0 .542-.437 1.002-1.011 1.002h-4.344a1.52 1.52 0 0 1-1.53-1.516v-5.766c0-.623.519-1.11 1.12-1.11H217c.628 0 1.12.487 1.12 1.11v1.868c0 .162.109.27.273.297a3.272 3.272 0 0 1 2.951 3.249v.866h.027Z" fill="#fff"/><path d="M213.693 12.651c-10.109 0-18.306 8.122-18.306 18.138 0 10.017 8.197 18.138 18.306 18.138 10.11 0 18.307-8.121 18.307-18.138 0-10.016-8.197-18.138-18.307-18.138Zm0 34.246c-8.961 0-16.257-7.201-16.257-16.108 0-8.88 7.268-16.107 16.257-16.107 8.962 0 16.258 7.2 16.258 16.107s-7.296 16.108-16.258 16.108Z" fill="#fff"/></svg>